<mxfile host="app.diagrams.net" modified="2021-12-04T05:53:50.150Z" agent="5.0 (Windows NT 10.0; Win64; x64) AppleWebKit/537.36 (KHTML, like Gecko) Chrome/96.0.4664.45 Safari/537.36" etag="ZeJPtNvq1j9bddbuNZk3" version="15.8.9" type="github">
  <diagram id="gXgDx5yMvA_csQbCZKOi" name="Page-1">
    <mxGraphModel dx="1422" dy="705" grid="1" gridSize="10" guides="1" tooltips="1" connect="1" arrows="1" fold="1" page="1" pageScale="1" pageWidth="850" pageHeight="1100" math="0" shadow="0">
      <root>
        <mxCell id="0" />
        <mxCell id="1" parent="0" />
        <mxCell id="r_5b7bMp5_o_jHUANpf_-1" value="" style="shape=image;verticalLabelPosition=bottom;labelBackgroundColor=#ffffff;verticalAlign=top;aspect=fixed;imageAspect=0;image=data:image/png,iVBORw0KGgoAAAANSUhEUgAAAbwAAADGCAYAAACpfjXMAAAAAXNSR0IArs4c6QAAAARnQU1BAACxjwv8YQUAAAAJcEhZcwAADsMAAA7DAcdvqGQAADDnSURBVHhe7Z0LtB1Vmee/Oufcm5snIYmQCEgiKCiCMahA0AAZdQZ0OS0Z7ZZoq2MvmKW9ZjmMOPYQEBD6oS58NY7SzjLdroQWB3AcxQfdgKgJ2AqRV3gaVCRBLnk/bu6955z5vm/vXbWrTtV5P+655/9L9tnP2rVrn6r6n2/vXXWD6y+/v0xgWhBYPyXQBexpxF4vTqj4IXfzuIXeHjsA3aa311vzBJ+H4E0v7LkXdPkkNCdRdOPvCfbi6/blNyWOHYBu06PrrRVy1gfTAXvm9eIUNHsMG9B9dJ+9ufh6fuwAdJseXm+tEHx+HSy86UR4CvbiTOQzKWbtdBXv4hu4Yweg2/T4emsSFrwHcIVOE6bECRje+LvLIB87AN1mSlxvTRB8AYI3vbAnYLcHG8xJZE+lXp1Rg3zsAHSbHl1vrYA5vOlED09As8ewAd1nkI8dgG7Tw+utFYIvXAELbzoRnoC9OA/5TIpZO11Gj71X11+Pjx2AbtPT661JYOFNI3oqdkJ4/ne/AT2/+Hp47AB0m34UOyH44hVb8JN0OmFPwlD8ukTMuunFGRUebrePfAocOwDdpofXWyvAwptO2DOvF6eg2WPYgO4S7q83F19Pjx2AbtPj660Vgi9e2UELz9WMm0DXCE/BXvQ5f9/mK++FmWOPvFfnWk+PHYBu0+L1NsmuYILdpO2CF+xns/GPJcrtLFNuX5mCAzYDAAAAYMo51orhgEpHEpUWsL8ooPK8zg84tm0PImxDj5do+BeTNPRoifI7IHYAAAAqCUr8McZG0fYyFR4p0dAvi5R/rEi5/Z0dIWmL4OVeKNPQw9zgJ0sUHLSJAAAAQB2IcVRg/cg/UqRgtHOi17LgidhJQ8UHAAAAmiX3R9aTrWzpvVCisvevXchIKnvNOVXl35j5OgAAAKBVcrvLlGddCQ5JzGiNKEzS+VpUr8ulJ9fnCs+WYdkBAABoK2Lp5X/Losdh38mQpDgJ+/KXLJflcqmpdbjcARa7PxQ5AgAAALSX/O9KRHsmqVwWneFwucRhWe1SSb3Dnk3P4QXPs6pigQoAAIAOEBxmgdK5vCIVSyx87JdZ+ErqWxH0COf7Ugw053Ly+GAz/zBvBwAAoJMEu1jeShNUKk+qX2RfLL5SSaw9kTcRPdEiVqXAqBonq5/mmhvSFBHdn25aAgAAAO0gtz9goTvEAjfGojfOYjbOcfFFBCeoXBJLT+bwzHyfLEoRX1TPyVXM/f1VDzVuqrHWDX2P7U0w2Kx9JX3w0rk0bKMRY/TY6Y/QPRL81Cl08TtHNDVOkZ67fgt9bwPRqltOp5OXxtOqktjv+C+fpfWXPG9j1Yn2lcIzo3Tjmt/ayNH0jruPpZfOtVGfsJxfxjvmBJn73LeP7j33CXqQg9X6oO7+yezrOLu/+yu6+WobYU772nI68/V5G7N4bYuo0idM7HvIPDe8/ftlqvV9LA8MEuVcmXb+ux0cYtssEJfnkPgFyuWGWMRylGdf5CzHeVJGt7OqZqy+iOYsvMS1AQYPuQlfrDcruQn/im483bh7fym/uEbo5FuONwWvfsRLN8gN78bT6xC2DE5bNSt2Ix0+6Qg6zYbrx2v39ftoXJKWLqKL736lret5+t65kj9KuzXOiAhI+QZvvveskXqepef22QQVR06rEJQWsX1tXEq7rYvE7nh6z69ON2Lnl/nuGNHcuXQm573nU7ZoBfYYXHlm+PXH0sXue9/wBK338gQRxPj+0znta0sgdkAJSgGNFw/QRGk/TZYOsDtIE+VDfPWOGcuPZJiTLT5OMXN7MufH27mlnAnX9KIVMMCwJRFaLM/signXg5dsiQSkIxxNLzsp8Ytr7ix62Vobbga+Of/mGRvmG/3JmTf56cWqWxbRfA2xePniy8L5mO2P+e9cTu+o1bdXj0ZivvTI2uWrwVbfCmdtighD7AaeiSKLXfEgjU/u5zCLHocnJg+y+InoiRvXOT6d27MrOp2FJ/N8PhA80H7k132nblRrj6BF9tf/7l86Yc3TolVHa6hZdo9GFuhAwMLy8vBHy/6Kodh7HnSWWT19+zztfdEGW4ItznAYNCHCYGCZLB5ioROBM76GOU2dCJ6d1xPRk/k8XanJopcYzVQgeKBxrt4fDZfJMOCvTjfODWd1kFUXRjfEHZfsoVFrWTQ3rBkxf5GzGot08CkbnM6cOBQOC4+PRsOOIU9NhFZ67b49muYttEGaoL1NDlXHLM6M+VAweBTLh1nQnBuzQmdd0Vl5h1XwdEVnSYY2+V+KlQfBA03wW7rZm5sJCcXvFFplk9rL8bQ4ZpU8T7973FpmrQxFxqyd+BBt98nTSy+1PyCsy1xk0wKnvVQm+tvEpxaFc27jvxxtTqj43AmPc99E9IMKDDz6OAJbcMaJsBl/0gpgsShpInQyl2ee2zNqV/kkAQteYlavbgcGGm+BhJvviRihk8PFH23kU3OsBUC0+0EzZPrgPQdDS2T+aY1YmJ6w2GE0XUzT8zmj+CKg9P5tnQefm7ChZuHv2Imyrgw17a53tWwlbNW5H1GyYKYLowWgTyiXdG5OXclYcSJ2InCRGJpn9CRfLLqSCl6kV8bIa+FdmgA4zCpEcd7KwLlDoTi1i1WnRUvu578zLlbK0jkNWJaVwlJr9eC0wh+yXJTyKIM/5Pn4npS5NG+VprrmV90qYrF7i2XE4steIQoGCfM6sbI+cyeiZyw4CRurzjyfN8FOxG6S9Unm71jhWOVE4NyzeeKaeyxBHBhY5Lmt9JvRGB10q/XaPizlDWcmltlHjzyM0GLcJOvDX5ma8kMh+nFRpNF7mrXaGueeNdGPprpWiILpD+uNip6ImAxaWuGTObsSsRNfBI/D+vqxQIY1TXl5EZmvW5jDA01hLKz4XJ3//NTuu9q7wu60rx0ZDWcm6m5+WHOwicQlMQTtPXay+7stWm4N488Py7Bzp+aDQb8gC1CiB8iN6GmqvkzaCJ+8a1MXq+iwp/giejqOyWH1lOCGax7xovVT+I7+sSIwoNTz9hCloTetpLP7u8/SwfOqvdHEfzNHVG8adb+1pNpbRVLftJKG2cfeC2v3VbV21d9mH3mo3K56TH4nCZp700qNlZQtvWklcU7UaD+Y3jx65u3qyzucZX7OvE0loHyuQLlgiHK5GTRcmE2F3Cz259BQfhbnjWieewuLcfz5lSYFLw/BAwAA0GG2WsEzWOFi0cvJ68XY5VnwCrmZRuys4Ek8nxvmcnnewgikgDk8AAAA/YGnPTJkWbJDlzJbp87FA5Oa1C3M4QEAAOgbVMg04Ob2RNjYt6JmPZsX+QIEDwAAQF8RvT0lEj9JU2f/uXQfCB4AAID+gw23hJ4pLi0UPQ8IHgAAgP5FFM6OWkaDl+lA8AAAAAwEOXm2oZl/AAAAQOcRvTEuqT8mZFJcarxk/B8sPAAAAAMBnsMDAADQnyT1yI+7sOeC/3XtoynrXGqTu/Wg+hdfe0B9AAAAoF3cuG62+lvP/IH6gjxTZx5JCCiXy4dvWhnKz2Q3275phX15vVh+Blt0XCZXCFduYg4PAADAlEWfKbfO/KkgE1bfOheq9Q9zeAAAAKYs4QPl1rITK8/8k6hVPvuwufwzGelgDg8AAMCURV4UnXT8ITnqVADZyRCnprNT4ROiYupg4QEAAJiyyECkc6paqmUiejbOTow/N9ypRp4Koi3qAcEDAAAwZfEtO12oki/oQhQzrJljobPWncbE2tOt9L9QKlkhZCB4AAAApixBwOJmnazKDMoseiJuuSFOk1WYRuzyHC6zb6y6EpVLSfsOggcAAGAKo1addWrD6VCmhPOUlzRr/Ym8iVHHdqB+asR82AUvnCpeMw4AAADoNCJsoZO/YK5Dm2LxiZjJEKYMa0baJAOYZc6SsC5oyRmrT5xIo6Q27gAAAIAOo+LlO7Ha1LdhjRsn+YKJRunOYUgTAADA1EVWX1onKzHLbMOVSkXJYGfSWM6UgBVPtE2yNJfzSt5cnsz9cakmHAAAANBhSuXJ0BEVWeDYic9O0tTnf0HAwpaTJ/A4JmGRPKtXMqwpPiw8AAAAU5YSC1zoSkbgRPQ0LBYch8XSix4/EDtOVnFWyhsWrQAAAJiyqEVnnRE946vY8T9ZgSlip7adhHXYU4TSaFXAwud0CxYeAACAKYvO21lnZIulTUVNFI2djFaq4w9GfPcYgkmJgOABAACYsrgXR4dORU9zzCenqWUnQ5q2jBO/JPjzQAAAAKYs+iyddSJmImqKeu7BhIDFzJar8g+rNAEAAExdPN1xC1HUynM6xD7rXFimmsOQJgAAgIEAggcAAGAggOABAAAYCCB4AAAABgIIHgAAgIEAggcAAGAgwHN4AAAA+grzlEFShyJ9yvqH5/AAAAD0H74W+X4VhyFNAAAAAwEEDwAAwEAAwQMAADAQQPAAAAAMBMFX/+4J++rpxgi+tVf9i689oD7wOGIO0QnHEy06kiiP3xQAtJ1iiWh0F9HTvyXas98mgunEjetmq7915Q/VF2SlpfvzP7lcgf0832Jn0FBhFg3l59Dw0Bz1JS7pOc6Xcu4PLEDw2o2I3RnLactDD9JnP/tZuvPOO2lsbMxmAgBaZWRkhFavXk2XXXYZLT/1NKL7tkD0piGdEDw8h9du2LITsTv//PPp9ttvh9gB0GbkmpJrS64xudZ0NAVMW/wnCyJcLK5KcT/l39c+82RTFh798x71YOEleNubaO2fv18vyLVr19JVV11FixYtspkAgFYZHR3V62rDhg10wQUX0IZ/+ibRj39mc8F0wVl4j3kWnvzhO7XwKMeWW56jBSo4C68wm4YLc9UXl2rhGQ+0jXxOhzEFiB0A7UeuKbm2BL3WME8O6gRnSgdww5gQOwA6g7u2MGUAGgGCBwAAYCCA4AEAABgIIHgAAAAGAggeAACAgQCCN0XYcdMafZgycmto47M2sx08u5HWtLtOn3uv4zZfR5tttP1spuu4X66718Y+zX306c7tDQAw/YDg0SN03QXn0HWP2WhFvPPIzXvJbWtoe7msz5io27yC1h4X3eDBWXQ598vlZ9ooAAA0SB8InhGgINN9s4NWRTfYTHdeSXTtpRfRYpuinHk5bbqGaN0dsGIAAKAd9IHgnUKX3/4TKlu36f2c9P6vhPHy7e/n3/6tYOq//GQb7RH3b9thQxFnXcGW3hXe0emwpDfsmRzS02FFL5/dmpsq61WSdYnz6nNDhuq7/PdspIza6mQHbXyPV19yCDTRputu8odh40OaSVw7M48XTGmuvvpqeuaZZ2wsQtLWr19vYwC0xjQZ0kxYgTc9YtMFO0R597/QmrDMFbRx1GbXHMLcSRv/RrbplCV5Fn1444V060VL0kXAIWJ23FpasdkNe26ia69cGYmUiMVZ99OG37v8Mm3Xej+aMm/H4hGri93ma4m4vpigcPzOt7oyvL9vr6WPNi0oIlhLaO2pm8J9brpmHa0Mj9e0iTZuD/dHF62lWzWvOiJ2K6+8ljbxdre8N2Yngz5AxE7enHLeeefFRE/CH/rQh9RB9EA7mAaCJ4L0Ebr/E7dZi+822vDMR2jN3TttvmEd31VvsFbh9k8Qrf3z+gRs803vorVLxaJs1ZLMZvF7bzGCojERAWvleBbV5jvWEV2zyZvDOosuV5G60xzHsRfRLeVb6KJjNVNZ/OY1dKENx0mZDztztd2/x7s30Ie9/a2+hujWp7bZeIPceycfGYuSZ7GedYUc8zq6k0V2x02fo3W8vxtCwbLHV4NI7C7v2PcDOssHPvABWrp0qQqcEz0ndnfffbfmffCDH7SlAWie/he8x75Pa3/6F/TxcxfYhAV00bv+gm79zPdjgnbtu94SzpEtfs05LARP0LbQyktn803n0EpisXvvKTalkxgRctaPWGfEFtUSteB20LaHiC48cZkp6lCRup+2xSw4M/SngskWU3ULyR9iXMnSk+DUZfF5xRbYse1+FtBlFD8CI6IynLvtKW5pcn/HLssQbAtboCuvZL+iXtBPiKDdddddMdHzxW7btiZ/ZAGQYJoMaTbIoiW0gu6pKnjrLmWx++Yq2vDWbohdJWL1qeg5Cy6NZ7ex3FnC+a+VdL8bFvz9hgzBcKLoDzE6C7ObGCFvHrHsWh1qBVOBpOhB7EAnGEzBG93OQrGKllV5t/OFn7jNDn36833txzx/lz5vt3jZCheiZaemDCey4N3K0r3sWK7np7fQre/eoI82hPNYmp+CG14UoXNDjL54dgA9lm9vo/gRcPzbRCuW8fGdyNL80LZwCFfJar/jmtVsI7o50LS5StBP+KIHsQOdoP8F7+S304Y3f50+F87Z7aSNt32dBevtmXM6m+/4NN365nNodRXBW7F4AS0+99MNzfc1w+L3flznsVZWrIDcQRuvX0cXbvywHsdZb5X5On9RCVtpZ8m8ntz0Lb6g6CKWikFKD38o1CwYqWeBSNPo8CsfZ2wlqAyjXkurz7T9ELPU7PHVweL33kAb3n0rrb201VWkoNc40YPYgU4wDSy8BXTRX32FVnzmXXYFpllkcks4p2eQIUq3inPlM1fQ9r+K5vSqIaK36f1fp5VVV3K2gpm723TqWlri5t7scOO2Sz1r7czLdYjy/rNcPovFNZtCC02GQM2qR5t/3C205vcyTHkr3fLThAxwXds3spAfF9VFm7ezaLT63J+3f88ZkZbj5H08tDJMjy824Xw+PgpXq3KbNmYNySZZTBddz2XDOU/Qz4joAdAJBuAvnstjBx8hur5Lz9qdv4qOPPJIDe7atUt90CRipR63jT6OFZgghdh19oN7NAymDx35i+fu13ajDoB2UjmXuYM2XrqWbvWHbAEAA4jojXEuZD68sAuEGqVBG47cYC5aAVOOiiFZt4LUf9MMAAC0wAAI3tR4dRiojb5KTVaOOgexAwC0EVh4AAAABgIIHgAAgIEAggcAAGAggOB1gJGREfVHRzv4ihYABhh3bblrDYB6gOC1m2KJVq9erUH5kycQPQDai1xTcm0Jeq3xNQdAPQQ3fvapph48L9+0W/2p/+B5l1lxCm3Z/ns6//zzaWxszCYCANqNWHc/+MEPaPmS44ju9/8GJpgORA+e/0h9IQhYe+Qp8iBnHioPCpTP2wfP83NoeGguDeuD57Psg+eF+IPnxgNt4+nf0vJTT9ML8YILLsCQCwBtRq4pubZU7Phak2sOgHqAhdcJjphDdMLxRIuOJP6ZYRMBAG1DhjFHdxmx27PfJoLpRCcsvOAfmhS8EgQPAABAh6gmeIEVPH2XZkLwzDs1s4Y0pYZmHAAAANBpRG6ciwLsse+npcbjDuNtAAAABgIIHgAAgIEAggcAAGAggOABAAAYCCB4AAAABoKcW9DSsAMAAAD6CLbw5AGFZhwAAADQRdIMrpghxh8pjyM4hyFNAAAAfQoLWQNgSBMAAMBAAAsPAABAfyFDlGkkDbOEwxweAACAgQBDmgAAAPqM5owuDGkCAAAYCCB4AAAABgIIHgAAgD6htfUjEDwAAAADAQQPAADA1CVIPhmQFa5N8A+ff7IpG7H0zT3qX3ztAfUB6Cb3bf81/fz5B+jxnU/T7rG9+mf/QXsIgoDmj8yjkxacQGcf/To6Y8lrbQ4A3ePGdbPVf+xNP1RftE3OTbnWgyBHuaDAfp4K+REaKsxiN4eGh+Yan+P5/Awtk8sVeBtTBQQP9BUvju2mGx/5Fu0Pxmj1GW+j1yx7DR05b4FeCKA9yA1l196d9PC2h+nO+35Mc8ojdPEpf0oLR+bbEgB0ngrBYwL+Fxe8AgveDCt4c2sKHoY0Qd8gYvfpf7uBTnz1a+iqS66jVcvPoQVHLITYtRnpT+lX6V/pZ+lv6XfpfwB6R+I6d8+Ea3J994CcKGYz/wDoNmLZnf36c+lPVr3LpoBuIP0t/S79D0D3CVXNEoXDEAfkd69zLp5Mx5tWQF8gc3YyjAmx6w3S79L/8j0A0K9gSBP0BbJARebsQO+Q/pfvAYB+BYIH+gJZjSkLVEDvkP6X7wGAfgWCB/oCefRAVmM2yv4DB+ln9/6KPvnpz9Fb3vdhetWa/6ROwpImeVIG1Eb6X74HAPoVCB7oC8xS5Ponj6W8iNknvvRFuuz76+mBpRN0/IfOpf/w3y5SJ2FJk7z/8eUvaVnZBmTjnoECoHe0toAEggemHXJTvu32H9NXfvb/6LeLxmn56jfSuW84k1530kn0qpcvVSdhSZO83ywY07KyDW7oAPQDtYTPra505Uw45yc34gCYqvz8vvvplsd+TrsWFun4U4+npUsX00uOmEXHzJpPJ8xbok7CkiZ5y05bqmVv5W1k217xyM1/RmuvYnfzEzYFAFCP7rg8v2yaYwsvLbkeB8DUQ+bjbv7Jj2j77D101IkLaOGRIzRZ2k3jxT109Kwj6DULXqlOwpImeVJGyv5h1m769j0/rntO74Wf/K0RKHbrt9pEYfQuusqmQ7wA6CJpUuU5PIcHphVbHtpKWw49SXOOmUFzjwhoorSTDk3+kYrlPTRvxkw6dt4x6iQsaZInZaTs3GNH6IGDT2gdjXLHQ5GwvfDIffSkDQMAOk39goQ5PDCt+P4dd1FhGYvXgoBm5os0u5CjuYVh9odoKBed7hKWNMmblc9pWdlGtpU6GmLRcnrFo7+gRzSymwVzi4ZihFbf39Ido5Kwm+74e2MFXvWT9Fd2+RZk6GAxgkGmRWMLggemFb9+aivNXFCmwsghWjJrIa1Y+EZaefRbaPmClbRoZIktxRrFYUmTvNMXvZFeymWHeBvZVupoiKPOoLMXfY++LcK19Xu0fvQd9NZX27wWeMk5n6QNV/1z6P6n1PnolZkCCQCoDgQPTCtePPwiDeXHaCjYTy+bdxSddczZtHrp+XTGMato8exjbCnSsKRJnpQ5jssWcvtpmLeVOhrjGFp+6nJ68qEH6I6Hvkf06jfSG2xOq/hW3l8/ahMBAE0BwQPTioDP6Bn5CRaug5QPDnNCyeZUgctI2eHcQd1W6miUl5xyBr1i9Gu0nkXprae+0qa2hqza/NhdW1hAr1EL7wvnLbc5AAwa7nEh9iuGNet/lAiCB6YVC4cX0NwhopHCGO2deIJ+s+df6bFd/5ee2fsvtG/8d7YUaVjSJE/KSNmZvM0c3lbqaJhFr6OzF0ngHfSGV2lKizxB/2YtunYJKAD9SfuejYXggWnFa098NRX2BTRcHKddhx+grbvW069Hr6cnd6+nPePR3JyEJU3ypIyUHeJtZFupo3Hm01v/Uuba3ken2JQYi46hpTZYH0fRMSqgjozFMAAMDL7wNSeCEDwwrbjgLefRwafybMIVKRfspPHSNjpcfIImy9uoVI7eAylhSZM8KSNlZRvZVupoP6+kt+uQ5BZar6sz/wut19WaWbCA/tkl9AoO3fEtKf9V+sNRGNIEoBWC//3Fp5uSysl/3KX+xdceUB+ATvKe7/9XnceqhTw0/jc3Xk/jL7uPXnbqITpqYWCGKUeOpWXz3k8vmfnvtdwLh35E2/Z+k3aOPUv7Joj++GKJfv/wbBp65g30V5f8d5oze5aWA3Fk8czNb/+SjQHQOW5cN1v9x9/0Q/UV+z7XgG21XK7AP1QLlM/PoOECX7uFOTRjeK76QxwvcHog+bk8b2Mm/mDhgWmFCNX5Z51PM3e9gvZuG6LgUI7mDc+i2YUyFcsP0P6Jb6krlu/XNMmTMnu3DdPIzhPp/JUXQOwAmNIkV624uPjVHd6lCaYdZ5+xglYsYUvuuZNp+6MzaO+OgIKJw0TlLTRR+o46CUvaHs7bsXWmlpVtZFsAwBTCEx4vqE4wPl/j6sfzk44tvLTkehwAUxP5Mzb/8YK30Tmveh/te/x0uv9fc/S7Jw7Rzh2HaffzE+p27RjXNMnbu3W5lpVtGvkTRACAXpG4TpOy5OIJh3dpgr6g0b/FJuXfdObp9LH/fBmdd8rltOm7Z9Nff3KErrhsp7rrOCxpkvexD39Cy0LsqqNzJ+gjMBVo8jTEHB7oC+aPzKNde3faWP3IfJyI2bWXX0Ybb/wn2vjVHxnHYUmTPMzZ1Yf0v3wPAPQrEDzQF5y04AR6eNvDNgZ6gfS/fA8A9BYZ6cFzeGAac/bRr6M77/uxjYFeIP0v3wMA/QoED/QFZyx5Lc0pj9B37rnNpoBuIv0u/S/fAwBTgibm8SB4oG+4+JQ/pZ//8m6IXpeR/pZ+l/4HYEoREz2JVHd4Dg/0DQtH5tMVb/goPfXow3TV1y6ne7b8hHbuebGh1ZugNtKf0q/Sv9LP0t/S79L/APSeSIX06Tvz38ZruG98aVtTd4vx9eZvhuHVYqAX3Lf91/Tz5x+gx3c+TbvH9kL02og8eiCrMWWBiszZYRgT9ILw1WJvjl4tJgInl3oQyKvF8myxDUWvFhuaSzPYDcurxYbSXy0WfOPLTQreNyB4AAAAOkMnBA9zeAAAAPqI5kdzIHgAAAD6jOZED4IHAABgIIDgAQAA6CPcmsvGgeABAADoD+rSOSeIlQ7P4QEAAJiyVOhOQoA0Gpi/h6d/zIOd+M75cbbwbErDDgAAAOg19esR/h4eAACAPqRxIcIcHgAAgIEAggcAAGAggOABAADoQxp/+ByCBwAAoA8JGp7Ga17wRsye9u3GChYAAADtw+nK5NC4+lUJJUgCzgl+3Limn8PLLSjwJ9HO7Xn1AQAAgHbw4nZjix2evU99R6hB/CG+w6Vp2Oa5Z+98l0tNrcPlFhrBe3EHRkUBAAC0j507jCE1Pmcv6w0HnPNJxuugabUKFg6pP7q9ib0CAAAAGThdGZsTt/BapWnBy790iIIZAT3zaIG2/sKIHwAAANAKW39RUF0pFSbp0Hzzh8bbBQueLO1s1DEzc1Q4Y44GN90+RHtehKUHAACgeURHNt0+rOE/nrCVJocOazgdq0UNUEPwsjD5+VfMoPyJM6g4GdDm22dA9AAAADSF6Mfm7xs92XvUc+qUmpLkMpIF/bhxGYLnyEqPKJwxm4I5Ofrd43n6P1+eqeYoAAAAUC8yLSb68bsn8jQ5Y4xeePnjNqcKLEliYsnfSSjH9MnXrLgL1t/wFIfilpn5QwuONKstnlY6VKLifQeo+LQxP5e+epIWLSnTgsVFWrikRHPny84AAAAA85ydPNImq/xlgYrM2Wk6W3UidsXw+buEdgQsbmUWriBHuaBAudwQFfIjNFSYRcNDc2mGdRIvFEa4XJ7L5Lkao1kseE/aGuMiZ7P10xAXOT/O+1dKT43RxL0HiMYhcAAAAOpDFqi8cMLWaBgzJF3wcixkImb5/DDlczNouDCbhoeN2A0PzTGCl5+hohjkZCDTKtr6G57wauREicmzdhpzohaJW1rYCZ7EygcnafK5MSqOjlPpxSIFu1mNDze9GBQAAMA0Qyy4sdl7aXzOPjo8Z7+uxkxfoBIXvEAFT3xj4QW5Ag2xhVdggZuRELx8TsRwSMs6rWLBe9yTq8ivFDvnC/E0bYCGJFyiUplFr3iYJiYP0vjEATo8vo99dpMHqMjppdKElimVSqqtotjZVMurF7/t3abb+25Hf9VLu46tXfWYY3c90MtvvRfUc7zxHkpS69xJy/drzM6PSCvjUyu/kl5fYW7/Jj2lNTapZjvDAlHJ6tu4mat4i9KmpLSELRbdbo14hHjpxpOaTFiERtLjdSeRPL/CJMm8WnEhnuYET4Yp1cLTIc2ZLHgzWezmqeiJtaeCx9afiqIneKmLVkyWhNP8Skx5+2kbJHHZUcC7kDRtoIbNzstsYpqyMh5rtu0c5rjqc+2mE3VmkbYv/9hquUZpZpvu0Okzqr9ppneS33XynEk7F9K2qUat/Ep68T37+6wMyzE4x3gFvNQa1FOyvpqmE75eiMao/KqeiACKsNnOVp9/DGhZSXD9qas0faQCGwypSLDI7txOozLSkJzGxRmBE5WVsFFlK4DhNsb36+gdnWhDN4+rlX01u210MjVPq9sL0fZT4Uya2jTa1818N61+n6BjhBeIfEfO+VT77tqV18g+uckxvTD6IWmqL7IoRVJVa8TIMkgZv1Ytv/6Gx2yaEy6vYs3x4gnfb0S5ZNS0xH6ZZEhzgoqlwzQxfkCHMscn9qubLB7S4c6iDGuWiryPEpeXHWVZetU7on2k7btVOlFnLZL9VU//tbOdvTjmCPnBVS+pp9u0J6ODsjouyOrQKD0+JZFVXkjLS6SlficZdcaS+X5kQ41SrcU1aWSnGSdcZhUp5aMUbzjTHUCsuItY35ZRz4Xdds7nsi5oetP2qbZDwuyb/xqvD65RKk0Wr3rO2Li3jTvHTBuMyMkcnSxMkSHN4aHZdu5O/Nlm/i4v83d5FUHZXPQl/ydv/8urtCapyh6YIc2Pwhryy2t7OF1sRg0bk7JULrKmFdV3TgtwnmwuRbUWjuhmQtXOaDe2/W2nU/XWotP9VQvZf+/aEDt1QAoZHZTWcZliJ0R5rQkeU3U/jowymtzatVbP3qceKYKXis30PRd22zmfA2EwFT+3eklDVhmbHmYny/n58t0aY0iHL9nlWexklaYImnksgUWvMGL9GZqez5u5OzOVZhC9sRaeSaoQvHCHXho7jWlZDWi56JwXoSuxBTdJxeI4W3NjatWJdSeLWMRp2uSYWbgiAqgLXfwFLGFldeLKuza1i5T6Gm1aSLvblkaicbrLZhvcxLG37RCbqMiegI0cbfW92NxGmqI7b7a/W6FWI6u1KS0vq3x62Si13rqy6heq5VWnibNGaX6PCSoaUKNFNjsqVV/5CG65Nt47Ai3jF+Swl+2LnNvUJHnb6PoKCci93qZzggm7PIurry6SheuI634NRvBkOFPErMDWnFh3skKTLTy7UCV8HEGFUN7xLFubmTsVzeqC54XZmQM1YYP1tZ0ykeiGNVnAqEjFyXFdkTnBgufETgVv8hAL4ri6EgtjWS2/EtdjmuLqMSQ7oR2ElTdOzea0UHfbsI3sVFOy+qDV/YXnW/PU+o3qE11KGTTanE6cqo0ibc5sR1ZGI+mVaVGf11feUEd6tf5P2bzZsyerJQ1T0YAaLbLZUana5f0S2u/a+GSf+aVs2BbJFjyBy9qIXhsiELq9hG2afIonaFkXSRLVGieZ7sfT8qL6czlZ/yEPkhfMkKUMabLYDakTsWM/P1PFzg1nRm029WQLnt58bFj88OBt3PnaRhMPhzaCshG9Ilt5VtiMVWdFj8PyeILM5ZWtlSdWoXNabfjNCH44DZfv2lWLess1SifqrafOZP/U6q9pTCOHHl656TT6bfaq1+trZ7XWmTxzydlyFZVmbW/T/TtpEq2rxvYxsspm0GDxtlK18xOZFWUrN46lZJb3D1hG1Ew8Op1dIF6B/xVpUHyXZsuauLnXhyIhee7+r36E2zyI/VjlVD8aEu7MwnFNSqYLUgdXwg0Sy06tMzdEydadmbuTeTojeHl92wr7KoTmDSxqEdqGVAieicuHcwL7ciDhQSbyBG1rlGY6X4RLfn/IUGVRhU2GN4s6vDlmBG+Sw2rhyeIVeSaPLT0uLxXKtuZYXUc4PwO3+xrFooKtUE8d7dhPK/gdUbNTpgF+f/Px6iFX+Q7q/HpMsUa+y8jW6Rbx1iXbmtaa7LTwchMq5tWqxTms/5NlBE6LNStZJm2bJJVlqlbZBcwu3X0zoqIpya+EiZISmRyNp1TmR9g96X1WAyY71iAvzIW0nO9rQO7Z4gtc3oad8WPu/HKcNux8i9tUU2IRR3RWmGQXs76LRgFG7v9WS3R/gnm0TcQs0OFKs2BFhE6GNfMaNmkyv6cLW9iZKsyQphCs/8rjnjZLyHeCO8AoHvraRhvXDuIk2YOmi3CVqMgWnA5ZsrBNquiJZceCFw5pTnDahJaPRM/WY0Ku6hRcmSSZG3jUU6YWNerw+6dp6tne64fYjSqrf6YhfKj1Hm16j3Jqq19Vj8lsfnRH8/oo2Vt+PK0ns8pHN1yDXy65jZBMS8T1INK2S6GFTUN4o0Y3yaTiC0gkZOSHySn5saRYxLTa3Ce9I+Ay8a1M2J0CrrhGxbcurNyqgRE8WeLP/zRs/ChucPVKeoRJ9D8jrDArLs+WVC9KU9ETn/8Zyy5QC06GNHMynKkWHgudWHXykDn7ZsjTDWVGc3eO4B9Z8GzQeOobZzby0xO+bsm+JkWHXOKWS1gvBQ6rBceiZx5FENETsZOweeOKhGUlp5QXcZSNyyUjfKZS1wlZuHzXgmrYMrEq69muFq3WkbZ9vXW6g/EPqlafNUIjdbVzv40R7lkC9iSPzso2o9VGtZtz3UZ6QO2jNI3zPyP8uAsnywhp2+mRG18DJi1EG+bFQ1xatbxsYsdri9fug3Rq760St413L1XidXGmn2/DUZIJhfFkZUwsJcx3e5E+l7C3Vy4SP+dN2Hw3xpeXfsgmGpY0e6tVQsFzYmcWirDksKcp6rtdWk/TI0yqfrodS8wvwnET5XRT0MZcefccnRE+cWK5mQfMZUhTBM6s0nQCaN68Is/kSfnoUQQfFrzEuzRDXw/NhoUMX4c85X+UrnNxGrIHwHt283Rizcm8nRE8N38ni1YmTWkWOnPQ1rlqNd4KYUUJstItde02rY4m99cSrrG27xqh7mZVqZe/5wb3mkEjtXgNr9jM5dU4OJtddxdklNfdt6cDGqJ2u7lRtl3p35Ck+Tl+GRdO2U5GE7wbWlRDlu/w4144PJBq5Q1atDI5Pa0atTsvFbOb6K6ncCS+e05IqT9MStyMJZ4sHouH5d1euMf1mpO4FRD+SLtvy9ekW4lvnYRLLizlPF8FzxO9KGzipqz1pLzGIky2fNqCIVFatI1Ls2eQaRDvRz/tPk2bzPsz5bEEN08njycM83Zi/ZmhTGmnrUK3jeCcSsEzzhRzcSEZjvsu5NLMqkuOcVS/EulZWbsplpwVvzJZXwXPfwhd4JD7VkL8cCNEraukWp5Pp+vwqbecT7KvhLS0VqhWV/TNRTSy71baafpLf7l6+GdljNTkzNKppJVO64FuULvd3C5tWtZ3ZFJNbmUJg0v3fNmxvbPotnLNa2NcGYe3je+nlnVk1ZHAq7JqdVnwRo1uEsEb604tflhJJCTz7c04TJYbuw0qyTjHTFxaLD3u/hkTTewhU0ZK+VuaHPmq9Osyt2b9uvS2LE7g60dlk30nbCofOicmFlYkfDF0ez8trND6QjJNfBtWz4uLz9WZ/Zg0bYv81QO7f7HyNMxO3qdZtu3VLUIr1W+TwRM8ybQFvbCf7nLieWm+NJP/aW9yKifrLxErYPIF6YujJaTiJ+nypUVloqpMHRHV4tH+I9LSHBl5sV1U274ajbZFaHZfgjTaNTzZR/XgbZPajGp1mjzz3WmIw+xpPdW2E2rl14NrMPtysbqw810wg1h22kVi/VTMya3BdhxJQ9gdZrfPa1HYRr+VLix+PCee52Pjbq7YXq9ma1c2ww/nl50v+OEkyTyOy8HaZD1uGxbPj9eNfH022AhmG3euWSrq4gS/gA2HSfZc8+N+8bS4QfYiTowFCZl7p+bqNhLytzQWj7kHs1+SuA1bpyN1EpbtOCzi5hZ+qJBI2A1rclg20Q8NCG5/LqGWL/hp6WFXqxyTNFGHVvN5bjOH5DEFjqvYyT/29VhsOA0reCZTNnLhuO/lS0W20ggXjtK0iHaqhFy6+SUSiho7vVA47j94HrbV+fJTJIbW7uHvwyctzZGRF6u62vY+9ey7ibY0hGu478cOpg688hVNyqorSnffq36nIVnbVaORbfyG6mmvvqFWv5rS2cUyMtKSwyY3c7wtUNfuXCG/cDLN/9bSygt+XMJxF9VQy0/ip9tw2MfJbUxcvzkN2nxXLFm8Fq6aBjHbcCsS50K8Ls70823hMKki7oWFZOUcFyPBYPubr7m44MmHLNZw24rPTotyWfG5uPqcI0sl9LoVNeFyEhSMuMnQoRE7FTx2UkZ8LWbLRkgdLjHLd0icnSabsLkaXTmTZnTBCHQuZ49Fjk+D8mHeo+kjbc3CEzx78duwIe4b1fTStG3xMg7Ncm1nzM3QYQVMqgitQPky/DIcT/1F6EhL84m3J06VvLDaatsnSSubTMuqr5H9VCPZV0m/Xmz5imal1eOnRd+f8eN5IWG9fr5PVnoWrkLx5Rw2fuSy0dzkTcWjVn4MPuZGW94uwsukAj+Dw/rfS5MNNSofLsflO1/wwwLHtVsk3ebp8dtwxXWb5TtsPOzqjHyPcPfqcyAMW79euKJGNxHMNny2+adHRV2cEMs3kTApJe4XT49HBypCJ9daUvDSrgHtIt9ZoXPiZ6oVYTHbiOBFFp4cp4TznGQFz20jdekWgnxqRSm+4KdZp0l+uvFtq22KGEHRkUu7NOKlmWi20DlY8MxfPI86Saj0IxPR8+2WBucbNMu1xhIJmvFdlZU3SMHGw2NI5gtpaUK8LZXxDMLq6iyvZJWtpw2N7KcWrvFZfiPwNrGmpdVRmea+Rz1NNZs/wnoqy9efVg23A/FliEN856oTntIxTKJ+1q4igpttWt5o+1tHm1nXbvmbceV8UdKg/d4U5wt+WOB42C+SZx1XbLZ3+RL2faFKWqzOJJVp8V1wIAxbv164okY3ieCNw3YzflhJ5icK2HiYyvFYidR4dKD1CZ4gQsYlrJMqxNCQcNzCk7DZzll2zifP2tPVk7YeQcJma/m0iaEv+GmJfL+iRJqJxfOky+RI46mMtLEmRP8f8v50PmfQrkkAAAAASUVORK5CYII=;" vertex="1" parent="1">
          <mxGeometry x="203" y="40" width="444" height="198" as="geometry" />
        </mxCell>
      </root>
    </mxGraphModel>
  </diagram>
</mxfile>
